<svg width="32" height="32" viewBox="0 0 32 32" fill="none" xmlns="http://www.w3.org/2000/svg">
<g clip-path="url(#clip0_119_5408)">
<path d="M24.0002 7.99984H21.3335C21.3335 5.05317 18.9468 2.6665 16.0002 2.6665C13.0535 2.6665 10.6668 5.05317 10.6668 7.99984H8.00016C6.5335 7.99984 5.3335 9.19984 5.3335 10.6665V26.6665C5.3335 28.1332 6.5335 29.3332 8.00016 29.3332H24.0002C25.4668 29.3332 26.6668 28.1332 26.6668 26.6665V10.6665C26.6668 9.19984 25.4668 7.99984 24.0002 7.99984ZM16.0002 5.33317C17.4668 5.33317 18.6668 6.53317 18.6668 7.99984H13.3335C13.3335 6.53317 14.5335 5.33317 16.0002 5.33317ZM24.0002 26.6665H8.00016V10.6665H10.6668V13.3332C10.6668 14.0665 11.2668 14.6665 12.0002 14.6665C12.7335 14.6665 13.3335 14.0665 13.3335 13.3332V10.6665H18.6668V13.3332C18.6668 14.0665 19.2668 14.6665 20.0002 14.6665C20.7335 14.6665 21.3335 14.0665 21.3335 13.3332V10.6665H24.0002V26.6665Z" fill="url(#paint0_linear_119_5408)"/>
</g>
<defs>
<linearGradient id="paint0_linear_119_5408" x1="14.2471" y1="-0.533506" x2="45.2751" y2="2.75326" gradientUnits="userSpaceOnUse">
<stop stop-color="#002F52"/>
<stop offset="1" stop-color="#326589"/>
</linearGradient>
<clipPath id="clip0_119_5408">
<rect width="32" height="32" fill="white"/>
</clipPath>
</defs>
</svg>
